<svg width="113" height="113" viewBox="0 0 113 113" fill="none" xmlns="http://www.w3.org/2000/svg">
<path d="M51.7917 51.7916L28.25 28.2499M23.5417 35.3124L35.3125 23.5416L21.1875 16.4791L16.4792 21.1874L23.5417 35.3124ZM94.049 42.2572C96.3095 39.9987 97.8646 37.1317 98.525 34.0053C99.1854 30.8788 98.9226 27.6278 97.7686 24.648L91.0733 31.3433H81.6567V21.9266L88.3519 15.2314C85.3719 14.0747 82.1199 13.8097 78.992 14.4687C75.8641 15.1277 72.9953 16.6821 70.7353 18.9427C68.4752 21.2032 66.9214 24.0723 66.2631 27.2004C65.6049 30.3284 65.8706 33.5804 67.0279 36.5601L36.5649 67.0277C33.5852 65.8704 30.3332 65.6047 27.2052 66.263C24.0771 66.9213 21.2081 68.4751 18.9475 70.7352C16.6869 72.9952 15.1325 75.864 14.4735 78.9919C13.8146 82.1198 14.0796 85.3718 15.2362 88.3518L21.9267 81.6565H31.3434V91.0732L24.6482 97.7684C27.6274 98.9251 30.8786 99.1905 34.006 98.5323C37.1333 97.8741 40.0019 96.3208 42.2622 94.0615C44.5225 91.8022 46.0771 88.9344 46.7366 85.8073C47.3962 82.6802 47.1322 79.4288 45.9769 76.4491L76.4492 45.9768C79.4278 47.1288 82.6769 47.3906 85.8014 46.7302C88.9259 46.0699 91.7913 44.5159 94.049 42.2572Z" stroke="white" stroke-width="1.5" stroke-linecap="round" stroke-linejoin="round"/>
<path d="M55.5443 68.2708L81.9297 94.6563C82.5201 95.2478 83.2214 95.7171 83.9933 96.0373C84.7653 96.3575 85.5928 96.5223 86.4286 96.5223C87.2643 96.5223 88.0918 96.3575 88.8638 96.0373C89.6357 95.7171 90.337 95.2478 90.9274 94.6563L94.6564 90.9273C95.2479 90.3369 95.7172 89.6357 96.0374 88.8637C96.3575 88.0918 96.5223 87.2642 96.5223 86.4285C96.5223 85.5928 96.3575 84.7652 96.0374 83.9933C95.7172 83.2213 95.2479 82.5201 94.6564 81.9297L68.2709 55.5442" stroke="white" stroke-width="1.5" stroke-linecap="round" stroke-linejoin="round"/>
</svg>
