<svg width="125" height="125" viewBox="0 0 125 125" fill="none" xmlns="http://www.w3.org/2000/svg">
<path fill-rule="evenodd" clip-rule="evenodd" d="M13.3929 0C9.84085 0 6.43433 1.41103 3.92268 3.92268C1.41103 6.43433 0 9.84085 0 13.3929L0 66.9643C0 70.5163 1.41103 73.9228 3.92268 76.4345C6.43433 78.9461 9.84085 80.3571 13.3929 80.3571H111.607C115.159 80.3571 118.566 78.9461 121.077 76.4345C123.589 73.9228 125 70.5163 125 66.9643V13.3929C125 9.84085 123.589 6.43433 121.077 3.92268C118.566 1.41103 115.159 0 111.607 0L13.3929 0ZM68.0804 12.9821C68.0804 11.5021 67.4924 10.0828 66.4459 9.03623C65.3994 7.98971 63.98 7.40179 62.5 7.40179C61.02 7.40179 59.6006 7.98971 58.5541 9.03623C57.5076 10.0828 56.9196 11.5021 56.9196 12.9821V16.5536C53.7064 16.9301 50.7307 18.4333 48.5209 20.7963C46.3112 23.1593 45.0105 26.229 44.8499 29.4602C44.6893 32.6914 45.6792 35.875 47.6437 38.4454C49.6083 41.0158 52.4203 42.8067 55.5804 43.5L66.2679 45.8304C67.1283 45.9936 67.8956 46.4751 68.4169 47.1789C68.9382 47.8826 69.1751 48.757 69.0805 49.6276C68.9859 50.4983 68.5667 51.3013 67.9064 51.8767C67.2461 52.4521 66.3933 52.7575 65.5179 52.7321H59.4821C58.7601 52.7346 58.0551 52.5124 57.4648 52.0965C56.8746 51.6806 56.4282 51.0915 56.1875 50.4107C55.6599 49.0627 54.6292 47.9724 53.3129 47.3701C51.9966 46.7678 50.4977 46.7005 49.1327 47.1826C47.7678 47.6646 46.6435 48.6582 45.9974 49.9535C45.3512 51.2489 45.2337 52.7446 45.6696 54.125C47.4018 59.0357 51.6786 62.7411 56.9196 63.6696V67.375C56.9196 68.855 57.5076 70.2744 58.5541 71.3209C59.6006 72.3674 61.02 72.9554 62.5 72.9554C63.98 72.9554 65.3994 72.3674 66.4459 71.3209C67.4924 70.2744 68.0804 68.855 68.0804 67.375V63.6607C71.4208 63.0688 74.4524 61.336 76.6577 58.7581C78.863 56.1801 80.1054 52.9168 80.1728 49.5249C80.2403 46.1331 79.1286 42.8229 77.0275 40.1594C74.9264 37.4958 71.9661 35.6439 68.6518 34.9196L57.9643 32.5893C57.3552 32.4615 56.8154 32.1119 56.4497 31.6084C56.0839 31.1049 55.9184 30.4834 55.9851 29.8647C56.0519 29.2459 56.3462 28.6741 56.811 28.2602C57.2757 27.8463 57.8777 27.6199 58.5 27.625H65.5179C66.2399 27.6226 66.9449 27.8447 67.5352 28.2606C68.1254 28.6765 68.5718 29.2656 68.8125 29.9464C69.0379 30.6603 69.4047 31.3214 69.8909 31.8906C70.3772 32.4598 70.973 32.9253 71.6429 33.2594C72.3127 33.5936 73.043 33.7896 73.7901 33.8357C74.5373 33.8818 75.2861 33.777 75.992 33.5278C76.6978 33.2785 77.3464 32.8898 77.8989 32.3847C78.4514 31.8796 78.8967 31.2685 79.2081 30.5878C79.5196 29.9071 79.691 29.1707 79.712 28.4224C79.733 27.6741 79.6032 26.9292 79.3304 26.2321C78.4678 23.7879 76.9718 21.6163 74.9953 19.9394C73.0187 18.2625 70.6325 17.1403 68.0804 16.6875V12.9821ZM24.5536 33.4821C26.3296 33.4821 28.0328 34.1877 29.2887 35.4435C30.5445 36.6993 31.25 38.4026 31.25 40.1786C31.25 41.9546 30.5445 43.6578 29.2887 44.9137C28.0328 46.1695 26.3296 46.875 24.5536 46.875C22.7776 46.875 21.0743 46.1695 19.8185 44.9137C18.5627 43.6578 17.8571 41.9546 17.8571 40.1786C17.8571 38.4026 18.5627 36.6993 19.8185 35.4435C21.0743 34.1877 22.7776 33.4821 24.5536 33.4821ZM100.446 33.4821C102.222 33.4821 103.926 34.1877 105.182 35.4435C106.437 36.6993 107.143 38.4026 107.143 40.1786C107.143 41.9546 106.437 43.6578 105.182 44.9137C103.926 46.1695 102.222 46.875 100.446 46.875C98.6704 46.875 96.9672 46.1695 95.7113 44.9137C94.4555 43.6578 93.75 41.9546 93.75 40.1786C93.75 38.4026 94.4555 36.6993 95.7113 35.4435C96.9672 34.1877 98.6704 33.4821 100.446 33.4821ZM40.1786 88.1696C43.2589 88.1696 45.7589 90.6696 45.7589 93.75V111.607C45.7589 113.087 45.171 114.507 44.1245 115.553C43.078 116.6 41.6586 117.188 40.1786 117.188C38.6986 117.188 37.2792 116.6 36.2327 115.553C35.1861 114.507 34.5982 113.087 34.5982 111.607V93.75C34.5982 90.6696 37.0982 88.1696 40.1786 88.1696ZM90.4018 93.75C90.4018 93.0172 90.2575 92.2915 89.977 91.6145C89.6966 90.9375 89.2855 90.3223 88.7673 89.8041C88.2492 89.2859 87.634 88.8749 86.9569 88.5944C86.2799 88.314 85.5543 88.1696 84.8214 88.1696C84.0886 88.1696 83.363 88.314 82.6859 88.5944C82.0089 88.8749 81.3937 89.2859 80.8755 89.8041C80.3573 90.3223 79.9463 90.9375 79.6658 91.6145C79.3854 92.2915 79.2411 93.0172 79.2411 93.75V111.607C79.2411 112.34 79.3854 113.066 79.6658 113.743C79.9463 114.42 80.3573 115.035 80.8755 115.553C81.3937 116.071 82.0089 116.482 82.6859 116.763C83.363 117.043 84.0886 117.188 84.8214 117.188C85.5543 117.188 86.2799 117.043 86.9569 116.763C87.634 116.482 88.2492 116.071 88.7673 115.553C89.2855 115.035 89.6966 114.42 89.977 113.743C90.2575 113.066 90.4018 112.34 90.4018 111.607V93.75ZM68.0804 100.446C68.0804 98.9664 67.4924 97.547 66.4459 96.5005C65.3994 95.454 63.98 94.8661 62.5 94.8661C61.02 94.8661 59.6006 95.454 58.5541 96.5005C57.5076 97.547 56.9196 98.9664 56.9196 100.446V118.304C56.9196 119.784 57.5076 121.203 58.5541 122.249C59.6006 123.296 61.02 123.884 62.5 123.884C63.98 123.884 65.3994 123.296 66.4459 122.249C67.4924 121.203 68.0804 119.784 68.0804 118.304V100.446Z" fill="white"/>
</svg>
