<svg width="111" height="111" viewBox="0 0 111 111" fill="none" xmlns="http://www.w3.org/2000/svg">
<path d="M111 111V104.833C111 99.9269 109.051 95.2213 105.581 91.7519C102.112 88.2825 97.4065 86.3334 92.5 86.3334H43.1666C38.2601 86.3334 33.5546 88.2825 30.0852 91.7519C26.6157 95.2213 24.6666 99.9269 24.6666 104.833V111H111Z" fill="#CCD6DD"/>
<path d="M54.39 86.4505C54.39 95.2257 81.2767 95.5834 81.2767 86.4505V74.8911H54.39V86.4505Z" fill="#FFDC5D"/>
<path d="M54.3654 80.0834C58.1147 84.3199 62.7644 85.4669 67.8211 85.4669C72.8777 85.4669 77.5243 84.3168 81.2736 80.0834V69.3195H54.3623L54.3654 80.0834Z" fill="#F9CA55"/>
<path d="M77.552 10.175C71.6166 8.25413 59.4344 8.75671 55.944 13.2954C46.8667 13.4711 37.1881 22.3357 35.7914 33.1613C34.41 43.8759 36.516 48.1895 37.6136 56.2431C38.8562 65.3698 43.9869 68.2897 48.0877 69.5107C53.9892 77.3085 60.2638 76.9755 70.7995 76.9755C91.3715 76.9755 99.3851 63.23 100.252 39.8521C100.773 25.715 92.4754 15.0035 77.552 10.175Z" fill="#FFAC33"/>
<path d="M91.1033 40.9251C89.1115 38.1686 86.5646 35.9486 80.9776 35.1655C83.0743 36.1244 85.0816 39.4421 85.3436 41.2766C85.6057 43.1112 85.8678 44.5943 84.209 42.7597C77.5644 35.4152 70.3278 38.3074 63.1591 33.8211C58.1517 30.6885 56.6255 27.2197 56.6255 27.2197C56.6255 27.2197 56.015 31.8447 48.4207 36.5591C46.2192 37.9251 43.5922 40.9683 42.1369 45.4638C41.0886 48.6951 41.4154 51.575 41.4154 56.496C41.4154 70.8643 53.2585 82.9448 67.8642 82.9448C82.47 82.9448 94.3131 70.7564 94.3131 56.496C94.3069 47.5605 93.3727 44.0671 91.1033 40.9251Z" fill="#FFDC5D"/>
<path d="M68.2465 76.1151C59.755 76.1151 57.1465 73.9414 56.7118 73.5004C56.5194 73.3178 56.365 73.0991 56.2571 72.8568C56.1493 72.6145 56.0903 72.3533 56.0834 72.0882C56.0696 71.5527 56.269 71.0337 56.6378 70.6453C57.0066 70.2568 57.5146 70.0308 58.05 70.017C58.5855 70.0031 59.1045 70.2025 59.4929 70.5713C59.6533 70.6854 61.716 72.0729 68.2465 72.0729C75.0299 72.0729 76.9909 70.5774 77.0094 70.562C77.1961 70.3781 77.4176 70.2332 77.6609 70.1358C77.9042 70.0384 78.1645 69.9905 78.4266 69.9948C78.6887 69.9991 78.9472 70.0555 79.1872 70.1609C79.4272 70.2662 79.6439 70.4183 79.8244 70.6083C80.1972 71.0001 80.4016 71.5224 80.3935 72.0632C80.3854 72.6039 80.1656 73.12 79.7813 73.5004C79.3434 73.9414 76.738 76.1151 68.2465 76.1151ZM70.7964 63.8465H64.9196C64.5295 63.8465 64.1554 63.6916 63.8796 63.4158C63.6038 63.1399 63.4488 62.7658 63.4488 62.3758C63.4488 61.9857 63.6038 61.6116 63.8796 61.3358C64.1554 61.06 64.5295 60.905 64.9196 60.905H70.7964C71.1865 60.905 71.5606 61.06 71.8364 61.3358C72.1122 61.6116 72.2672 61.9857 72.2672 62.3758C72.2672 62.7658 72.1122 63.1399 71.8364 63.4158C71.5606 63.6916 71.1865 63.8465 70.7964 63.8465Z" fill="#C1694F"/>
<path d="M56.1013 53.5574C55.3219 53.5574 54.5745 53.2479 54.0235 52.6968C53.4724 52.1457 53.1628 51.3983 53.1628 50.619V47.6806C53.1628 46.9013 53.4724 46.1539 54.0235 45.6028C54.5745 45.0518 55.3219 44.7422 56.1013 44.7422C56.8806 44.7422 57.628 45.0518 58.179 45.6028C58.7301 46.1539 59.0397 46.9013 59.0397 47.6806V50.619C59.0409 51.0052 58.9657 51.3879 58.8185 51.7449C58.6712 52.102 58.4549 52.4264 58.1818 52.6995C57.9087 52.9726 57.5842 53.189 57.2272 53.3363C56.8701 53.4835 56.4875 53.5587 56.1013 53.5574ZM79.6148 53.5574C78.8354 53.5574 78.088 53.2479 77.537 52.6968C76.9859 52.1457 76.6763 51.3983 76.6763 50.619V47.6806C76.6763 46.9013 76.9859 46.1539 77.537 45.6028C78.088 45.0518 78.8354 44.7422 79.6148 44.7422C80.3941 44.7422 81.1415 45.0518 81.6925 45.6028C82.2436 46.1539 82.5532 46.9013 82.5532 47.6806V50.619C82.5532 51.3983 82.2436 52.1457 81.6925 52.6968C81.1415 53.2479 80.3941 53.5574 79.6148 53.5574Z" fill="#662113"/>
<path d="M40.0834 86.3334H49.3334V111H40.0834V86.3334ZM86.3334 86.3334H95.5834V111H86.3334V86.3334Z" fill="#226699"/>
<path d="M40.0834 95.5834H95.5834V111H40.0834V95.5834Z" fill="#226699"/>
<path d="M85.5625 107.917C89.394 107.917 92.5 106.191 92.5 104.063C92.5 101.934 89.394 100.208 85.5625 100.208C81.731 100.208 78.625 101.934 78.625 104.063C78.625 106.191 81.731 107.917 85.5625 107.917Z" fill="#F5F8FA"/>
<path d="M95.5834 29.2917C95.5834 33.3617 40.0834 33.3617 40.0834 29.2917C40.0834 18.3582 43.1667 3.08337 67.8334 3.08337C89.4167 3.08337 95.5834 18.3582 95.5834 29.2917Z" fill="#3B88C3"/>
<path d="M40.256 29.2916C40.256 29.2916 38.7143 38.5416 44.881 38.5416C47.9643 38.5416 52.5893 32.375 68.006 32.375C83.4227 32.375 88.0477 38.5416 91.131 38.5416C97.2977 38.5416 95.756 29.2916 95.756 29.2916C95.756 29.2916 91.131 30.8333 68.006 30.8333C44.881 30.8333 40.256 29.2916 40.256 29.2916Z" fill="#226699"/>
<path d="M40.0833 27.75C40.0833 27.75 38.5416 37 44.7083 37C47.7916 37 52.4166 30.8333 67.8333 30.8333C83.2499 30.8333 87.8749 37 90.9583 37C97.1249 37 95.5833 27.75 95.5833 27.75C95.5833 27.75 90.9583 29.2917 67.8333 29.2917C44.7083 29.2917 40.0833 27.75 40.0833 27.75Z" fill="#55ACEE"/>
<path d="M63.2084 4.625C63.2084 4.625 63.2084 0 67.8334 0C72.4584 0 72.4584 4.625 72.4584 4.625H63.2084Z" fill="#226699"/>
<path d="M29.2948 72.8745C29.2793 67.3091 26.1313 62.5361 21.5525 60.0695L21.5895 73.6639C21.5895 75.369 18.4877 76.7565 14.6551 76.7626C10.8256 76.7719 7.71759 75.3967 7.71451 73.6947L7.68368 60.1034C3.12034 62.5885 -0.00615756 67.3739 9.10595e-06 72.9393C0.0185091 79.3865 4.22418 84.7947 10.0208 86.7372V111H19.2708V86.7372C25.0922 84.7885 29.3102 79.3465 29.2948 72.8745Z" fill="#66757F"/>
</svg>
